# Blender v2.93.6 OBJ File: ''
# www.blender.org
mtllib Test_Ramp_1.mtl
o Cube_Cube.002
v -2.500000 0.000000 2.500000
v -2.500000 5.000000 2.500000
v -2.500000 0.000000 -9.500000
v -2.500000 5.000000 -9.500000
v 2.500000 0.000000 2.500000
v 2.500000 5.000000 2.500000
v 2.500000 0.000000 -9.500000
v 2.500000 5.000000 -9.500000
v -2.500000 0.000000 11.500000
v -2.500000 5.000000 3.500000
v 2.500000 5.000000 3.500000
v 2.500000 0.000000 11.500000
v -2.500000 0.000000 -5.300000
v -2.500000 5.000000 -5.300000
v 2.500000 0.000000 -5.300000
v 2.500000 5.000000 -5.300000
v 9.500000 5.000000 -9.500000
v 9.500000 0.000000 -9.500000
v 9.500000 0.000000 -5.300000
v 9.500000 5.000000 -5.300000
v -2.500000 5.000000 -6.280000
v -2.500000 5.000000 -8.520000
v 2.500000 0.000000 -6.280000
v 2.500000 0.000000 -8.520000
v -2.500000 0.000000 -8.520000
v -2.500000 0.000000 -6.280000
v 2.500000 5.000000 -8.520000
v 2.500000 5.000000 -6.280000
v 9.500000 0.000000 -6.280000
v 9.500000 0.000000 -8.520000
v 9.500000 5.000000 -8.520000
v 9.500000 5.000000 -6.280000
v -2.500000 1.471544 -8.520000
v -2.500000 1.424791 -6.280000
v 9.500000 2.500000 -6.280000
v 9.500000 2.500000 -8.520000
vn -1.0000 0.0000 -0.0000
vn 0.0000 0.0000 -1.0000
vn 1.0000 0.0000 0.0000
vn 0.0000 1.0000 0.0000
vn 0.0000 0.8480 0.5300
vn 0.0000 0.0000 1.0000
vn 0.0892 -0.9958 -0.0208
vn 0.0854 -0.9963 0.0000
usemtl None
s off
f 33//1 4//1 3//1
f 4//2 7//2 3//2
f 16//3 5//3 15//3
f 1//1 10//1 2//1
f 14//4 6//4 16//4
f 11//5 9//5 12//5
f 2//4 11//4 6//4
f 5//3 11//3 12//3
f 21//4 16//4 28//4
f 16//4 32//4 28//4
f 2//1 13//1 1//1
f 35//3 20//3 19//3
f 8//2 18//2 7//2
f 15//6 20//6 16//6
f 17//3 31//3 36//3
f 33//7 35//7 34//7
f 27//4 17//4 8//4
f 28//4 31//4 27//4
f 4//4 27//4 8//4
f 22//4 28//4 27//4
f 14//1 21//1 34//1
f 33//1 21//1 22//1
f 36//3 32//3 35//3
f 29//2 34//2 35//2
f 30//6 33//6 25//6
f 3//1 25//1 33//1
f 33//1 22//1 4//1
f 4//2 8//2 7//2
f 16//3 6//3 5//3
f 1//1 9//1 10//1
f 14//4 2//4 6//4
f 11//5 10//5 9//5
f 2//4 10//4 11//4
f 5//3 6//3 11//3
f 21//4 14//4 16//4
f 16//4 20//4 32//4
f 2//1 14//1 13//1
f 19//3 29//3 35//3
f 35//3 32//3 20//3
f 8//2 17//2 18//2
f 15//6 19//6 20//6
f 30//3 18//3 36//3
f 18//3 17//3 36//3
f 33//8 36//8 35//8
f 27//4 31//4 17//4
f 28//4 32//4 31//4
f 4//4 22//4 27//4
f 22//4 21//4 28//4
f 26//1 13//1 34//1
f 13//1 14//1 34//1
f 33//1 34//1 21//1
f 36//3 31//3 32//3
f 29//2 26//2 34//2
f 30//6 36//6 33//6
l 24 7
l 1 5
l 15 13
l 15 23
l 23 29
l 24 30
